<svg xmlns="http://www.w3.org/2000/svg" viewBox="0 0 400 468" height="NaN" width="48">
  <g fill-rule="evenodd">
    <path fill="#eb1c24" d="m167 27-1 1c-2 0-2-1-3 8l1 8v11l1 12 1 12a149 149 0 0 0 0 22l1 12v11c0 10 0 12 1 11v11l1 11 1 13a169 169 0 0 0 0 22l1 12v16a173 173 0 0 1-13 9l-2 2-2 2-2 1-1 1-1 1-3 2-2 2a53 53 0 0 1-5 4 403 403 0 0 1-24 22 1483 1483 0 0 1-71 62 92 92 0 0 1-16 9 61 61 0 0 0 11 10 98 98 0 0 0 8 7 36 36 0 0 1 4 2l1 2 2 1 3 2 1 1a549 549 0 0 1 32 18l1 1h1a96 96 0 0 0 14 7l2 1 2 1 2 1a675 675 0 0 0 34 19 1478 1478 0 0 0 23 16l11 10a426 426 0 0 1 1-36 12022 12022 0 0 0-8-254 6263 6263 0 0 0-4-116v-3h-3"></path>
    <path fill="#323393" d="M172 38a1161 1161 0 0 0 1 43 9984 9984 0 0 1 7 217l1 17v7-22a583 583 0 0 1 1 52l1 24v7-10c0-6 0-11 1-10v11c-1 19 0 36 1 59v5h6v-20l-1-12v-12l-1-12a227 227 0 0 0-1-34l-1-14a240 240 0 0 0-1-33l-1-12v-11l-1-14v-9l-1-6c0-6 0-6 3-7a98 98 0 0 0 12-8l5-4h1l1-1 2-1 1-1 1-1a97 97 0 0 1 9-6l3-2a42 42 0 0 0 4-4 133 133 0 0 0 8-6 742 742 0 0 0 51-44 172 172 0 0 0 13-11l2-1 4-3 1-1h1a86 86 0 0 1 9-7 41 41 0 0 1 6-4 127 127 0 0 1 23-14 81 81 0 0 1 6-3l-2-2-4-3a108 108 0 0 1-7-5l-2-1a93 93 0 0 0-12-8h-1l-2-1-1-1-3-2a6095 6095 0 0 1-38-17h-1l-1-1-4-1-1-1-4-1-2-1h-1l-1-1h-2v-1l-4-1-2-1-4-1-1-1h-2a40 40 0 0 0-4-2l-2-1h-1l-1-1h-1l-2-1h-1l-1-1h-1l-2-1h-1l-1-1h-1l-1-1h-1a91 91 0 0 0-8-4 286 286 0 0 1-46-28v10m1-8v3c0 3 0 2-1-2 0-3 0-3 1-2v1m0 8v-2 2m1 31-1 8a109 109 0 0 1 1-18v10m55-7h-1 1c1 0 1 0 0 0m15 6h-1c-1 0-1 0 0 0h1m-69 17v-2 2m110-1h-1 1m7 3h-2 2m-117 13v-7 7m173 19v1h1-2v-1h1m-173 15v-10 10m2 30v-8 8m1 28c-1 10-1 8-1-3 0-8 0-10 1-7v10m1 33v-8 8m4 22a172 172 0 0 0-1 3v-6l1 3m-3 5v7l-1-8c0-5 0-7 1-6v7m4 23-1 5v-12l1 7m-3-5h-1v-1l1 1m0 8v6l-1-6 1-6v6m5 41-1 8a152 152 0 0 1 1-8m1 21c-1 6-1 6-1 0v-5l1 5m-4 7v-11 11m0 6v-3 3m5 13c-1 6-1 7-1 2v-10l1 8m1 21c-1 7-1 7-1 0l1-6v6m-4 24v-9 9m5 0-1 5v-12l1 7m1 21-1 4v-8l1 4m-5 5h5l-3 1h-3v-9 3l1 5"></path>
    <path fill="#d19bab" d="M168 26c-1 0-1 1 1 1l2 20a4762 4762 0 0 0 5 174 10893 10893 0 0 0 7 215c1 2 0 2-2 0a196 196 0 0 0-47-34l-1-1-2-1a161 161 0 0 0-22-11l-2-1-2-1a96 96 0 0 1-13-6l-1-1h-1l-1-1-3-1-1-1-2-1-2-1-1-1h-1l-1-1h-1l-2-2-3-1-1-1-6-3a549 549 0 0 0-22-17 98 98 0 0 1-6-4l-8-8 1-1h1l1-1 2-1 2-1a92 92 0 0 0 10-6 42 42 0 0 0 8-5 49 49 0 0 0 4-3l1-1a529 529 0 0 1 26-23 288 288 0 0 0 14-13 1483 1483 0 0 0 48-44l3-2 1-1 1-1 2-1 2-2 2-2h1l1-1 2-1v-1l5-3 4-3v-16l-1 8v8h-1l-2 1-2 1-1 1v1h-1l-3 2-2 2-2 1v1l-4 2-3 2-1 1v1l-2 1v1h-1l-4 3-4 3v1l-1 1-4 4-5 4-3 3-4 3-2 2-2 2-2 2-3 3-2 1v1l-2 1v1l-2 1v1l-2 1v1l-2 1v1l-2 1v1l-2 1v1l-4 3-3 3-3 3-4 3-1 1-1 1-3 3-2 2-2 2-2 2h-1l-1 1-1 1-2 1-2 2-1 1-2 2-2 2h-2l-1 1-2 2h-1v1l-2 1-1 1h-1l-1 1-1 1-1 1-2 1-1 1h-1l-1 1-2 1-1 1-4 2-1 1h-1l-1 1h-1l-1 1c-2 1-2 6 1 6l3 3 2 2 2 1 2 2h1l1 2h1l2 2h1v1l2 1 2 2 3 2 2 2 2 1h1l2 2 1 1 2 1h1l2 2 1 1h1l1 1 1 1h1l1 1h1l1 1h1l1 1 4 2 1 1h1l1 1h1l1 1 2 1 1 1h1l1 1h1l1 1h1l1 1h1l1 1h1l1 1h1l1 1h1l1 1h1l1 1h1l1 1h1l1 1h1l1 1h1l1 1h1l1 1h1l1 1h1l1 1h1l1 1h1l1 1h1l1 1h1l1 1h1l1 1h1l1 1h1v1h1l1 1h1l1 1h1l1 1h1l1 1h1v1h1l2 1 1 1 1 1h1l2 1 2 1v1l2 1 2 1 2 1v1l2 1 2 2 3 1v1h1v1l2 1 3 2 2 2 1 1 2 2h1l1 2h1l1 2h1l1 2h1l1 1h1c2 0 2 0 1-1a676 676 0 0 1-2-73 2210 2210 0 0 0-4-105 2756 2756 0 0 1-3-111 7781 7781 0 0 0-7-123m-5 1v12l1-6 1-5 2-1h-4m9 0 1 1 1 1 2 1h1l-1-1-1-1-2-1h-1m6 4 5 4 1 1h1v1h1l1 1h1v1h2v1l-2-2-2-2-1-1h-1l-1-1-2-1-1-1-1-1h-1m13 9 1 1 2 1 1 1h1l2 2h1l1 1-2-2-1-1-2-1-2-1-1-1h-1m-28 13c1 13 1 13 1 1V44l-1 9m38-7 1 1 1 1h1l1 1h1l1 1 3 2h2l1 1 1-1-3-1-1-1h-1l-1-1h-1l-1-1h-1l-1-1h-1l-1-1h-1m13 7 1 1h1l1 1h1l1 1h1l1 1h1l1 1h1l1 1 1-1h-1l-1-1h-1l-1-1h-1l-1-1h-1l-1-1-3-1h-1m13 6 1 1h1l1 1h2l1 1h1l1 1 1-1h-2v-1h-1l-1-1h-2l-1-1h-2m9 4 1 1 1-1h-2m3 1 1 1 1-1h-2m2 1 1 1h2l1 1 1-1h-1l-1-1h-3m-77 11 1 9V67l-1 9m82-9 2 1h1l1 1h1l2 1 1-1h-1l-2-1h-1l-1-1h-3m8 3 1 1h1l2 1c1 0 1-1-1-1l-1-1h-2m5 2 1 1h2l1 1h1l2 1 1-1h-1l-2-1h-1l-1-1h-3m8 3 1 1h2l1 1 1-1h-1l-2-1h-2m5 2 1 1h2l1 1 1-1h-1l-1-1h-3m5 2 2 1h1l1 1 1-1h-1l-2-1h-2m5 2 2 1h1l1 1h1l1 1h1l2 1h1l1 1h1l1 1 1-1h-1l-1-1h-1l-1-1h-1l-2-1h-1l-1-1h-1l-1-1h-3m14 6 1 1h1l2 1 1 1h2l1 1 1 1h2l1 1 1 1h2l1 1 1 1h1l1 1h1l1 1c2 0 0-2-1-2l-1-1h-1l-1-1h-1l-1-1h-1l-1-1h-1l-1-1h-1l-1-1h-1l-1-1h-1l-1-1h-1l-1-1h-3m-131 3 1 19V99c0-10 0-12-1-9m154 9 1 1h1l1 1h1l1 1h1l-2-2-1-1h-2l-1-1v1m7 4 1 1 2 1h1l-2-2-1-1h-1v1m4 2 1 1 1 1h1v-1h-1l-2-1m4 2v1l1 1h1v1h1l1 1h1v-1h-1l-1-1-2-1-1-1m5 4 1 1 1 1h1v1h1l-1-2-3-1m-173 10 1 8v-15l-1 7m178-6 1 1 4 2v1h1l-2-2h-1l-1-1-1-1-1-1v1m4 6-1 1h-1l-1 1h-1l-1 1h-1l-1 1h-1l-1 1h-1l-3 2-2 2h-2v1l-3 1-2 2h-1l-1 1h-1l-1 2-2 1h-1l-1 1-1 1-3 2-2 1-1 1-1 1h2l1-1 1-1 1-1 2-1h1v-1l2-2h1l2-1 1-1h1l1-1 1-1 2-1 1-1h1l1-1 1-1h1l4-2 1-1 1-1h2l1-1 1-1h2l1-1 1-1h1v-1h-1m-181 15 1 18v-9c0-9 0-11-1-9m142 9-1 1-2 2h-1l-1 1c-2 1-2 2-1 2l1-1 1-1h1l1-1 3-3h-1m-8 7h-1l-1 1-2 1v1h-1l-1 2-2 1v1l1-1 2-1 2-2h1v-1l2-1 1-1v-1l-1 1m-132 5v21l1-10-1-11m122 3h-1l-1 1-1 1-1 1h2v-1l2-2h1l-1-1v1m-6 5-2 1-1 1-2 1v1h-1v1h-1l-1 1-4 3v1h-1l-1 1-4 3v1l4-2 3-3 1-1 4-3 3-3h1v-1h1l2-2v-1h1c0-1-1-1-2 1m-19 15-2 2-2 2-2 1v1h1l1-1 2-1v-1l3-3h-1m-97 1 1 19v-9c0-10 0-12-1-10m90 6h-1l-1 1-4 3v1h-1v1h-1l-2 2-3 2 1 1h1v-1l2-1v-1l1-1 1-1h1l1-1 1-1 1-1h1v-1l1-1h1v-1h1l-1-1v1m-15 12-3 3v1l2-1 1-2h1v-1h1-2m-6 5-1 1-1 1-2 1v1h2v-1h1l1-1v-1l2-1h-2m-6 5-2 2-2 2h-1l-1 1-2 1v1h-1v1h1l1-1h1l1-1 1-1v-1l5-4h-1m-11 9-1 1-1 1 3-2h-1m-3 3h-1l-1 1-3 2-2 1-1 1-2 1-1 1-1 1-2 1v1h2l1-1 1-1 1-1h1l2-2 3-2 1-1 1-1 1-1v-1 1m-16 11h-1v1h-1l-1 1-1 1-2 1h-1v1l1 1v-1l1-1 2-1 1-1 2-1 1-1h1-2m-9 6h-1l-2 1-1 1-2 2h-1l-3 2h3v-1l1-1h2l2-1 1-1 2-2h-1m-9 24 1 6v-5c0-8-1-9-1-1m1 10v1-2 1m0 12a25 25 0 0 0 1 6v-3c0-5 0-8-1-3m1 25 1 6v-5c0-9-1-10-1-1m2 19v10-12 2m0 27 1 7c1 1 1 1 0 0v-6c0-8-1-8-1-1m2 24v6-11 5m0 23 1 6v-11l-1 5m2 23v6-11 5"></path>
    <path fill="#1f247c" d="M172 31c1 4 1 5 1 2v-4c-1-1-1-1-1 2m1 6v1-2 1m0 30v10a145 145 0 0 0 0-10m55-5h1c1 0 1 0 0 0h-1m15 6h1-1c-1 0-1 0 0 0m-68 16v1-2 1m109 0h1-1m6 3h2-2m-115 9v4a104 104 0 0 0 0-4m172 23 1 1h1-1v-1h-1m-172 10v5a223 223 0 0 0 0-5m2 31v4a141 141 0 0 0 0-4m2 61v4a141 141 0 0 0 0-4m3 23v8l1-5-1-3m-3 7 1 8v-14c-1-1-1 1-1 6m4 22v7l1-5c0-8-1-9-1-2m-3-4v1h1l-1-1m0 9 1 6a90 90 0 0 0-1-6m4 18v8a123 123 0 0 0 0-8m-3 15 1 11a223 223 0 0 0-1-11m5 29v4-9 5m-3 2v5-11 6m0 10v1-3 2m0 21c0 9 0 10 1 7a133 133 0 0 0-1-7m5 8v6c0 7 0 7 1 0l-1-6m-3 25v5a174 174 0 0 0 0-5m4 3v7l1-5c0-8-1-9-1-2m1 23v4l1-4-1-4v4m-5 1v5h3l3-1h-5l-1-5v-3 4"></path>
    <path fill="#8289bd" d="M171 28a380 380 0 0 0 1 40 9513 9513 0 0 0 6 192 11142 11142 0 0 1 6 178l8 1c0-1 0-1 0 0v-20l-1-11h-1v4l1 6v20h-6v-5a1171 1171 0 0 1-3-68 12164 12164 0 0 1-9-284 3824 3824 0 0 0 0-53l2 2a47 47 0 0 1 4 3l1 1a76 76 0 0 0 11 7l1 1 2 1 1 1 2 1a103 103 0 0 0 8 4h1-1l-1-1h-1l-1-1-1-1h-1l-1-1h-1l-2-2h-1l-1-1-2-1-1-1h-1l-1-1h-1v-1h-1l-1-1h-1v-1h-1l-1-1-5-4-2-1h-1l-1-1-1-1-1-1-1 1m36 22a131 131 0 0 0 11 5h-1l-1-1h-1l-1-1h-1l-1-1h-2l-3-2m12 7h1l1 1 1-1h-1l-1-1-1 1m5 1h-1l1 1 2 1 1-1h-1c-2 0-2-1-1-1s1 0 0 0h-1m4 3h1l1 1h1l1-1h-2l-1-1h-1v1m5 1 1 1 1 1h1v-1h-1l-1-1h-1m5 2 1 1 1 1h1c1-1 0-1-1-1l-1-1h-1m5 3h1l1 1 1-1h-1l-1-1h-1v1m4 2h2l1 1 4 1 1 1 1-1h-1l-1-1h-1l-2-1h-1l-1-1h-1l-1 1m11 4h2v1h2l1 1h1l2 1 4 1 1 1h1l-1-1-1-1h-2l-1-1h-1l-2-1h-1l-1-1h-2l-1-1h-2l1 1m15 6h2l1 1h1l1 1h2l1 1 2 1 3 1h2v1h1l3 1 5 2 1 1 3 1a359 359 0 0 0-26-12h-3l1 1m50 23h1a126 126 0 0 1 23 16l2 2 1 1v-2h-1v-1l-4-2-1-1-1-1h-1l-1-1-1-1-1-1h-1l-1-1v-1h-2l-1-1v-1h-2l-1-1-1-1h-1l-2-1-1-1-1-1h-1l-1-1v1m24 19-6 3a135 135 0 0 0-22 14l-5 3a220 220 0 0 1-17 12 127 127 0 0 1-10 9 146 146 0 0 1-13 10 267 267 0 0 1-14 13 690 690 0 0 0-37 31l-2 2-3 2-4 3a97 97 0 0 0-7 5l-2 1-1 1h-1a29 29 0 0 1-6 4l-4 3-3 2-4 3c-2 0-3 2-3 2l1-1 2-1h1l2-2 1-1 2-1h1l1-1h1v-1h1l2-1 1-1 1-1h1v-1h1l1-1h1v-1l2-1 1-1 1-1 2-1 1-1 2-1 3-2 1-1h1v-1h1l1-1 2-1v-1h1v-1h1v-1l2-1 1-1h1l2-2 2-2 1-1h1v-1l2-1 1-1 1-1 1-1 2-1 4-4h1v-1l3-2 2-2h1v-1h1v-1l4-3 1-1h1l1-1v-1l2-1 2-2 2-2h1v-1l4-3 1-1h1v-1l4-3 1-1h1v-1h1v-1l2-1 1-1 2-1 2-2 1-1 1-1 1-1h1l1-1v-1l3-1 1-2h1v-1l2-1 1-1h1l1-1 2-2 1-1 2-1 1-1 1-1h1l1-1 1-1 2-1 3-2 1-1 1-1h1l2-1 1-2h1l1-1h1l2-2 3-1v-1h2l2-2 3-2h1l1-1h1l1-1h1l1-1h1l1-1h1l1-1h-1M183 250l1 5v-10l-1 5m1 20 1 8v-10l-1-1v3m1 12v1-1c0-1 0-1 0 0m0 13 1 7v-10l-1-2v5m1 23 1 6v-9l-1-1v4m1 10v1-3 2m0 12c0 8 1 11 1 3v-5l-1-3v5m1 25 1 6v-9l-1-1v4m1 19 1 11v-15l-1-6v10"></path>
  </g>
</svg>